# xmcd
#
# Track frame offsets:
#	150
#	26424
#	58260
#	90674
#	106747
#	150677
#
# Disc length: 2624 seconds
#
# Revision: 1
# Processed by: cddbd v1.5.2PL0 Copyright (c) Steve Scherf et al.
# Submitted via: audiograbber 1.83.01
#
DISCID=400a3e06
DTITLE=Grateful Dead - 82-08-28 Oregon Country Fair Site, Veneta OR
DYEAR=1900
DGENRE=
TTITLE0=Ken Babb's Intro > Keep Your Day Job
TTITLE1=Men Smart, Women Smarter
TTITLE2=West LA Fadeaway
TTITLE3=Far From Me
TTITLE4=Playing In The Band
TTITLE5=Drums
EXTD=
EXTT0=
EXTT1=
EXTT2=
EXTT3=
EXTT4=
EXTT5=
PLAYORDER=
